<?xml version="1.0" encoding="UTF-8" standalone="no"?>
<!-- Generator: Adobe Illustrator 26.2.1, SVG Export Plug-In . SVG Version: 6.00 Build 0)  -->

<svg
   version="1.1"
   id="Engine_Logo"
   x="0px"
   y="0px"
   width="289"
   height="99"
   viewBox="0 0 289 98.999999"
   xml:space="preserve"
   sodipodi:docname="o3de_logo.svg"
   inkscape:version="1.2 (dc2aedaf03, 2022-05-15)"
   xmlns:inkscape="http://www.inkscape.org/namespaces/inkscape"
   xmlns:sodipodi="http://sodipodi.sourceforge.net/DTD/sodipodi-0.dtd"
   xmlns="http://www.w3.org/2000/svg"
   xmlns:svg="http://www.w3.org/2000/svg"><defs
   id="defs873" /><sodipodi:namedview
   id="namedview871"
   pagecolor="#ffffff"
   bordercolor="#000000"
   borderopacity="0.25"
   inkscape:showpageshadow="2"
   inkscape:pageopacity="0.0"
   inkscape:pagecheckerboard="0"
   inkscape:deskcolor="#d1d1d1"
   showgrid="false"
   inkscape:zoom="2.8519973"
   inkscape:cx="139.2007"
   inkscape:cy="116.23433"
   inkscape:window-width="1350"
   inkscape:window-height="1230"
   inkscape:window-x="684"
   inkscape:window-y="131"
   inkscape:window-maximized="0"
   inkscape:current-layer="Engine_Logo" />
<style
   type="text/css"
   id="style759">
	.st0{fill:#1E70EB;}
	.st1{fill:#4B8DEF;}
	.st2{fill:#D2E2FB;}
	.st3{fill:#A5C6F7;}
	.st4{fill:#78A9F3;}
</style>
<g
   id="Subtitle"
   transform="matrix(0.27464003,0,0,0.27464003,-25.843626,-19.114946)">
	<path
   d="m 457.5,391.2 c 14.6,0 24.2,8.5 24.2,19.6 0,11.1 -9.6,19.6 -24.2,19.6 -14.6,0 -24.2,-8.5 -24.2,-19.6 0,-11.1 9.5,-19.6 24.2,-19.6 z m 0,3 c -12.1,0 -19.7,7 -19.7,16.6 0,9.5 7.6,16.6 19.7,16.6 12,0 19.7,-7.1 19.7,-16.6 0,-9.6 -7.8,-16.6 -19.7,-16.6 z"
   id="path761" />
	<path
   d="m 499.7,391.9 h 18.7 c 9.6,0 15,5.1 15,11.1 0,6 -5.5,11.1 -15,11.1 H 504 v 15.7 h -4.3 z m 18.2,2.9 h -14 V 411 h 14 c 6.6,0 11,-3.3 11,-8.1 0,-4.7 -4.4,-8.1 -11,-8.1 z"
   id="path763" />
	<path
   d="m 549.8,391.9 h 31.6 v 2.9 h -27.3 v 14 h 26.8 v 2.9 h -26.8 v 15 h 27.3 v 2.9 h -31.6 z"
   id="path765" />
	<path
   d="m 603.7,397 v 32.7 h -4.3 v -37.8 h 4.3 l 31.2,32.2 v -32.2 h 4.3 v 37.8 H 635 Z"
   id="path767" />
	<path
   d="m 685,422.1 c 2.8,3 7.6,5.3 14,5.3 7.7,0 12.5,-3.1 12.5,-8.1 0,-5.4 -5.9,-7.7 -13.4,-7.7 -2,0 -3.9,0 -4.6,0.1 v -3.1 c 0.7,0.1 2.6,0.1 4.6,0.1 6.6,0 12.6,-2.2 12.6,-7.2 0,-4.7 -5.5,-7.3 -12,-7.3 -5.7,0 -9.7,1.7 -13.4,4.8 l -2.7,-2 c 3.4,-3.2 9,-5.7 16.3,-5.7 8.7,0 16.1,3.6 16.1,10 0,5.8 -6.4,8.3 -10.7,8.8 4.3,0.3 11.4,3.2 11.4,9.4 0,6.2 -6.2,10.8 -16.8,10.8 -8.1,0 -14.1,-2.9 -17,-6.3 z"
   id="path769" />
	<path
   d="m 734,391.9 h 15.9 c 15.5,0 25.2,8.6 25.2,18.9 0,10.5 -9.7,18.9 -25.2,18.9 H 734 Z m 15.9,34.8 c 13.1,0 20.7,-7.1 20.7,-15.9 0,-8.8 -7.5,-16 -20.7,-16 h -11.7 v 31.9 z"
   id="path771" />
	<path
   d="m 820,391.9 h 31.6 v 2.9 h -27.3 v 14 h 26.8 v 2.9 h -26.8 v 15 h 27.3 v 2.9 H 820 Z"
   id="path773" />
	<path
   d="m 873.9,397 v 32.7 h -4.3 v -37.8 h 4.3 l 31.2,32.2 v -32.2 h 4.3 v 37.8 h -4.2 z"
   id="path775" />
	<path
   d="m 952.7,391.2 c 8.2,0 14.2,2.5 18.7,6.5 l -3.2,1.8 c -3.5,-3.2 -9.2,-5.3 -15.5,-5.3 -11.7,0 -20.8,6.7 -20.8,16.6 0,9.8 9,16.7 20.8,16.7 6.6,0 11.9,-2.5 14.6,-4.6 v -9 H 948.4 V 411 h 23.2 v 13.2 c -4.5,3.7 -11.1,6.3 -18.9,6.3 -14,0 -25.2,-7.9 -25.2,-19.6 -0.1,-11.8 11.1,-19.7 25.2,-19.7 z"
   id="path777" />
	<path
   d="m 989.9,391.9 h 4.3 v 37.8 h -4.3 z"
   id="path779" />
	<path
   d="m 1018.3,397 v 32.7 h -4.3 v -37.8 h 4.3 l 31.2,32.2 v -32.2 h 4.3 v 37.8 h -4.2 z"
   id="path781" />
	<path
   d="m 1073.7,391.9 h 31.6 v 2.9 H 1078 v 14 h 26.8 v 2.9 H 1078 v 15 h 27.3 v 2.9 h -31.6 z"
   id="path783" />
</g>
<g
   id="Gem"
   transform="matrix(0.27464003,0,0,0.27464003,-25.843626,-19.114946)">
	<g
   id="g856">
		<g
   id="g792">
			<path
   class="st0"
   d="m 370.8,300.3 8,24.7 8.1,24.9 c 15.6,-17.3 27.6,-37.8 35,-60.5 l -25.6,5.4 z"
   id="path786" />
			<path
   class="st0"
   d="m 288.2,360.3 -13,22.5 -13.1,22.7 c 24.3,0 47.5,-5.2 68.3,-14.5 l -21.2,-15.4 z"
   id="path788" />
			<path
   class="st0"
   d="m 335.8,339.1 -2.7,25.9 -2.7,26 c 21.6,-9.6 40.8,-23.7 56.5,-41.1 l -25.6,-5.4 z"
   id="path790" />
		</g>
		<g
   id="g808">
			<path
   class="st1"
   d="m 153.4,300.3 -25.5,-5.4 -25.6,-5.4 c 7.4,22.6 19.4,43.2 35,60.5 l 8.1,-24.9 z"
   id="path794" />
			<path
   class="st1"
   d="m 386.9,250.7 17.4,19.3 17.5,19.5 c 5.3,-16.3 8.2,-33.8 8.2,-51.9 0,-5.9 -0.3,-11.8 -0.9,-17.6 l -21.2,15.4 z"
   id="path796" />
			<path
   class="st1"
   d="m 381.4,198.8 23.8,10.6 23.9,10.6 c -2.5,-24 -10,-46.5 -21.6,-66.4 l -13.1,22.7 z"
   id="path798" />
			<path
   class="st1"
   d="m 188.3,339.1 -25.5,5.4 -25.6,5.4 c 15.6,17.4 34.9,31.4 56.5,41.1 L 191,365 Z"
   id="path800" />
			<path
   class="st1"
   d="m 236,360.3 -21.1,15.3 -21.2,15.4 c 20.9,9.3 44,14.5 68.3,14.5 v 0 l -13,-22.6 z"
   id="path802" />
			<path
   class="st1"
   d="m 288.2,360.3 v 0 l 21,15.3 21.2,15.4 2.7,-26 2.7,-25.9 v 0 c -14,10.1 -30.1,17.5 -47.6,21.2 z"
   id="path804" />
			<path
   class="st1"
   d="m 370.8,300.3 v 0 C 362,315.5 350,328.7 335.9,339 v 0.1 l 25.5,5.4 25.6,5.4 v 0 L 378.9,325 Z"
   id="path806" />
		</g>
		<g
   id="g820">
			<path
   class="st2"
   d="m 313.1,122.9 v 0 L 305.1,98.1 297,73.2 279.5,92.6 262.1,112 v 0 c 18.2,0.1 35.4,3.9 51,10.9 z"
   id="path810" />
			<path
   class="st2"
   d="m 262,112.1 v 0 L 244.6,92.7 227.1,73.3 219,98.2 l -8,24.7 v 0 c 15.6,-6.9 32.9,-10.8 51,-10.8 z"
   id="path812" />
			<path
   class="st2"
   d="m 168.8,153.6 v 0 c 11.7,-13 26.1,-23.5 42.2,-30.7 v 0 l -23.8,-10.6 -23.9,-10.6 v 0 l 2.7,26 z"
   id="path814" />
			<path
   class="st2"
   d="m 168.8,153.6 v 0 l -26,-0.1 h -26.2 l 13.1,22.7 13,22.5 v 0 c 5.5,-16.9 14.5,-32.2 26.1,-45.1 z"
   id="path816" />
			<path
   class="st2"
   d="m 95,220 21.2,15.4 21.1,15.3 v 0 c -0.4,-4.3 -0.7,-8.7 -0.7,-13.1 0,-13.5 2.2,-26.6 6.1,-38.8 v 0 l -23.8,10.6 z"
   id="path818" />
		</g>
		<g
   id="g838">
			<path
   class="st3"
   d="m 168.8,153.6 v 0 0 l -2.7,-25.9 -2.7,-26 c -19,13.8 -34.9,31.5 -46.7,51.9 h 26.2 z"
   id="path822" />
			<path
   class="st3"
   d="m 118.9,209.3 23.8,-10.6 v 0 0 l -13,-22.5 -13.1,-22.6 C 105.1,173.5 97.5,196 95,220 Z"
   id="path824" />
			<path
   class="st3"
   d="m 211,122.9 8,-24.7 8.1,-24.9 c -23.4,5 -45.1,14.8 -63.8,28.4 l 23.9,10.6 z"
   id="path826" />
			<path
   class="st3"
   d="M 262.1,112 279.5,92.7 297,73.2 c -11.3,-2.4 -22.9,-3.6 -34.9,-3.6 -12,0 -23.7,1.3 -34.9,3.6 l 17.5,19.5 z"
   id="path828" />
			<path
   class="st3"
   d="m 381.4,198.8 v 0 l 13,-22.5 13.1,-22.7 h -26.2 -26 v 0.1 c 11.7,12.8 20.6,28.2 26.1,45.1 z"
   id="path830" />
			<path
   class="st3"
   d="m 313.1,122.9 v 0 c 16.1,7.2 30.5,17.7 42.2,30.7 h 0.1 l 2.7,-25.9 2.7,-26 v 0 l -23.9,10.6 z"
   id="path832" />
			<path
   class="st3"
   d="m 137.3,250.7 v 0 l -17.5,19.3 -17.5,19.4 25.6,5.4 25.5,5.4 v 0 c -8.6,-14.8 -14.3,-31.6 -16.1,-49.5 z"
   id="path834" />
			<path
   class="st3"
   d="m 188.3,339.1 v 0 c -14.2,-10.4 -26.1,-23.6 -34.9,-38.8 v 0 l -8,24.7 -8.1,24.9 v 0 l 25.6,-5.4 z"
   id="path836" />
		</g>
		<g
   id="g854">
			<path
   class="st4"
   d="M 137.2,250.7 116.1,235.4 95,220 c -0.6,5.8 -0.9,11.6 -0.9,17.6 0,18.1 2.9,35.6 8.2,51.9 L 119.8,270 Z"
   id="path840" />
			<path
   class="st4"
   d="m 355.3,153.6 h 26 26.2 c -11.8,-20.4 -27.8,-38.1 -46.7,-51.9 l -2.7,26 z"
   id="path842" />
			<path
   class="st4"
   d="m 313.1,122.9 23.8,-10.6 23.9,-10.6 C 342.1,88 320.4,78.2 297,73.2 l 8.1,24.9 z"
   id="path844" />
			<path
   class="st4"
   d="m 288.2,360.3 v 0 c -8.4,1.8 -17.2,2.7 -26.1,2.7 -8.9,0 -17.7,-0.9 -26.1,-2.7 v 0 l 13,22.5 13.1,22.7 13.1,-22.7 z"
   id="path846" />
			<path
   class="st4"
   d="m 370.8,300.3 v 0 l 25.5,-5.4 25.6,-5.4 -17.6,-19.5 -17.4,-19.3 v 0 c -1.9,17.9 -7.5,34.7 -16.1,49.6 z"
   id="path848" />
			<path
   class="st4"
   d="m 387.5,237.6 c 0,4.4 -0.2,8.8 -0.7,13.1 v 0 l 21.1,-15.3 21.2,-15.4 v 0 l -23.9,-10.6 -23.8,-10.6 v 0 c 4,12.2 6.1,25.2 6.1,38.8 z"
   id="path850" />
			<path
   class="st4"
   d="m 188.3,339.1 v 0 l 2.7,25.9 2.7,26 21.2,-15.4 21.1,-15.3 v 0 c -17.5,-3.7 -33.7,-11.1 -47.7,-21.2 z"
   id="path852" />
		</g>
	</g>
</g>
<g
   id="Letters"
   transform="matrix(0.27464003,0,0,0.27464003,-25.843626,-19.114946)">
	<path
   d="m 641.5,112.6 h 98.3 c 78.1,0 132.4,49.7 132.4,124.9 0,75.2 -54.3,124.5 -132.4,124.5 H 641.5 Z M 739.4,317 c 50.5,0 79.9,-36.3 79.9,-79.5 0,-45.1 -27.5,-79.9 -79.9,-79.9 H 693.1 V 317 Z"
   id="path859" />
	<g
   id="g863">
		<path
   d="m 907.4,112.6 h 198.5 v 45.6 H 960.5 v 54.2 h 145.4 V 258 H 960.5 v 58 h 145.4 v 46 H 907.4 Z"
   id="path861" />
	</g>
	<path
   d="m 589.5,248.2 c -9.5,-8.4 -23.1,-14.1 -40.5,-17 14.4,-4.3 25.9,-11.1 34.4,-20.3 10.1,-10.8 15.1,-24.2 15.1,-39.6 0,-18.6 -8.1,-33.3 -24.1,-43.7 -15.7,-10.2 -37.3,-15.4 -64.2,-15.4 -27.4,0 -51.9,5.7 -73,16.8 8.3,13.3 15,27.6 20.1,42.7 8.6,-4.9 16.6,-8.5 23.9,-10.6 8.5,-2.6 17,-3.8 25.2,-3.8 23.2,0 34.5,8.2 34.5,25.1 0,11.1 -4.2,18.6 -12.7,23.2 -8.9,4.7 -23.2,7.1 -42.7,7.1 h -18.9 c 1,8.1 1.5,16.4 1.5,24.8 0,6.1 -0.3,12.2 -0.8,18.1 h 17.8 c 21.2,0 36.7,2.3 46.2,6.8 9.2,4.4 13.6,11.6 13.6,22.1 0,11.9 -3.9,20.3 -11.9,25.6 -8.2,5.4 -21.2,8.2 -38.6,8.2 -11.5,0 -23.3,-1.5 -35,-4.4 -1.8,-0.5 -3.6,-0.9 -5.4,-1.4 -5.5,14.1 -12.6,27.5 -20.9,39.9 19.9,6.8 42.4,10.2 67.2,10.2 33.6,0 59.9,-6.6 78.1,-19.6 18.4,-13.2 27.8,-31.9 27.8,-55.5 0,-16.3 -5.6,-29.6 -16.7,-39.3 z"
   id="path865" />
	<path
   d="m 262.1,112 c -69.3,0 -125.5,56.2 -125.5,125.5 0,69.3 56.2,125.5 125.5,125.5 69.3,0 125.5,-56.2 125.5,-125.5 C 387.6,168.2 331.4,112 262.1,112 Z m 0,206.9 c -44.9,0 -81.4,-36.4 -81.4,-81.4 0,-45 36.4,-81.4 81.4,-81.4 45,0 81.4,36.4 81.4,81.4 0,45 -36.5,81.4 -81.4,81.4 z"
   id="path867" />
</g>
</svg>
